# xmcd
#
# Track frame offsets:
#	150
#	16314
#	31867
#	41702
#	53308
#	64776
#	75867
#	86138
#	98561
#	109768
#	124891
#	136683
#	150350
#	162493
#	172371
#	182007
#	199148
#	213999
#	227663
#	229105
#	239462
#	255359
#	270441
#	282270
#	295301
#	311966
#	323623
#	337948
#	348596
#
# Disc length: 4763 seconds
#
# Revision: 4
# Processed by: cddbd v1.5.2PL0 Copyright (c) Steve Scherf et al.
# Submitted via: EZCDAudioConverter 2.1.7.1
#
DISCID=8d12991d
DTITLE=The Kinks - The Anthology 1964–1971 3/5
DYEAR=2014
DGENRE=
TTITLE0=Sunny Afternoon [Mono]
TTITLE1=I'm Not Like Everybody Else [Mono]
TTITLE2=Dandy [Mono]
TTITLE3=Party Line [Mono]
TTITLE4=Rosy Won't You Please Come Home [Mono]
TTITLE5=Too Much On My Mind [Mono]
TTITLE6=Session Man [Mono]
TTITLE7=Most Exclusive Residence For Sale [Mono]
TTITLE8=Fancy [Mono]
TTITLE9=Dead End Street [Mono]
TTITLE10=Big Black Smoke [Alternate Mix]
TTITLE11=Mr. Pleasant
TTITLE12=This Is Where I Belong
TTITLE13=Village Green
TTITLE14=Two Sisters
TTITLE15=Waterloo Sunset [Session Excerpt – Backing Track: Take 2]
TTITLE16=Waterloo Sunset
TTITLE17=Act Nice And Gentle
TTITLE18=Harry Rag [Session Excerpt]
TTITLE19=Harry Rag
TTITLE20=Dave Davies - Death Of A Clown
TTITLE21=Dave Davies - Love Me Till The Sun Shines
TTITLE22=David Watts
TTITLE23=Tin Soldier Man
TTITLE24=Afternoon Tea [Alternate Mix]
TTITLE25=Dave Davies - Funny Face
TTITLE26=Lazy Old Sun [Alternate Mix]
TTITLE27=Dave Davies - Susannah's Still Alive
TTITLE28=Dave Davies - Good Luck Charm
EXTD=
EXTT0=
EXTT1=
EXTT2=
EXTT3=
EXTT4=
EXTT5=
EXTT6=
EXTT7=
EXTT8=
EXTT9=
EXTT10=
EXTT11=
EXTT12=
EXTT13=
EXTT14=
EXTT15=
EXTT16=
EXTT17=
EXTT18=
EXTT19=
EXTT20=
EXTT21=
EXTT22=
EXTT23=
EXTT24=
EXTT25=
EXTT26=
EXTT27=
EXTT28=
PLAYORDER=
